<svg id="Grupo_4762" data-name="Grupo 4762" xmlns="http://www.w3.org/2000/svg" width="75.8" height="19.547" viewBox="0 0 75.8 19.547">
  <path id="Trazado_929" data-name="Trazado 929" d="M160.575,639.652a2.614,2.614,0,0,1,.814-2.032,3.268,3.268,0,0,1,2.283-.742,3.93,3.93,0,0,1,1.266.194,2.831,2.831,0,0,1,.984.557,2.407,2.407,0,0,1,.629.871,2.9,2.9,0,0,1,.218,1.153v14a2.612,2.612,0,0,1-.815,2.032,3.267,3.267,0,0,1-2.282.742,3.911,3.911,0,0,1-1.274-.194,2.854,2.854,0,0,1-.976-.557,2.4,2.4,0,0,1-.629-.871,2.9,2.9,0,0,1-.217-1.153Zm4.032,0a1.048,1.048,0,0,0-.226-.7,1.068,1.068,0,0,0-1.412,0,1.022,1.022,0,0,0-.233.7v14a1.049,1.049,0,0,0,.226.7,1.069,1.069,0,0,0,1.411,0,1.028,1.028,0,0,0,.234-.7Z" transform="translate(-160.575 -636.878)" fill="#caa66c"/>
  <path id="Trazado_930" data-name="Trazado 930" d="M179.634,648.7a1.053,1.053,0,0,1,.226-.694.827.827,0,0,1,.677-.274h.935a.3.3,0,0,1,.242.1.363.363,0,0,1,.081.242v5.58a2.609,2.609,0,0,1-.815,2.032,3.267,3.267,0,0,1-2.282.742,3.911,3.911,0,0,1-1.274-.194,2.85,2.85,0,0,1-.975-.557,2.389,2.389,0,0,1-.629-.871,2.9,2.9,0,0,1-.218-1.153v-14a2.614,2.614,0,0,1,.814-2.032,3.27,3.27,0,0,1,2.283-.742,3.94,3.94,0,0,1,1.267.194,2.831,2.831,0,0,1,.984.557,2.4,2.4,0,0,1,.628.871,2.88,2.88,0,0,1,.218,1.153v5.79a.364.364,0,0,1-.081.242.3.3,0,0,1-.242.1h-.9a.88.88,0,0,1-.7-.267.994.994,0,0,1-.234-.685v-5.177a1.048,1.048,0,0,0-.226-.7,1.068,1.068,0,0,0-1.412,0,1.022,1.022,0,0,0-.233.7v14a1.049,1.049,0,0,0,.226.7,1.069,1.069,0,0,0,1.411,0,1.024,1.024,0,0,0,.234-.7Z" transform="translate(-161.346 -636.878)" fill="#caa66c"/>
  <path id="Trazado_931" data-name="Trazado 931" d="M196.823,653.665a2.608,2.608,0,0,1-.815,2.032,3.266,3.266,0,0,1-2.282.742,3.913,3.913,0,0,1-1.274-.194,2.865,2.865,0,0,1-.976-.557,2.4,2.4,0,0,1-.629-.871,2.914,2.914,0,0,1-.217-1.153V637.489a.364.364,0,0,1,.081-.242.3.3,0,0,1,.242-.1h.9a.991.991,0,0,1,.677.226.757.757,0,0,1,.258.6v15.693a1.049,1.049,0,0,0,.226.7,1.069,1.069,0,0,0,1.411,0,1.029,1.029,0,0,0,.234-.7V637.973a.757.757,0,0,1,.258-.6.989.989,0,0,1,.677-.226h.9a.3.3,0,0,1,.242.1.369.369,0,0,1,.081.242Z" transform="translate(-162.117 -636.892)" fill="#caa66c"/>
  <path id="Trazado_932" data-name="Trazado 932" d="M205.98,656.181a.3.3,0,0,1-.242-.1.368.368,0,0,1-.081-.242V637.489a.369.369,0,0,1,.081-.242.3.3,0,0,1,.242-.1h.9a.989.989,0,0,1,.677.226.757.757,0,0,1,.258.6v16.4H209.8a.751.751,0,0,1,.6.258.99.99,0,0,1,.226.677v.548a.3.3,0,0,1-.1.242.364.364,0,0,1-.242.081Z" transform="translate(-162.887 -636.892)" fill="#caa66c"/>
  <path id="Trazado_933" data-name="Trazado 933" d="M225.11,653.665a2.611,2.611,0,0,1-.814,2.032,3.268,3.268,0,0,1-2.282.742,3.922,3.922,0,0,1-1.275-.194,2.852,2.852,0,0,1-.975-.557,2.4,2.4,0,0,1-.629-.871,2.9,2.9,0,0,1-.218-1.153V637.489a.369.369,0,0,1,.081-.242.3.3,0,0,1,.242-.1h.9a.989.989,0,0,1,.677.226.757.757,0,0,1,.258.6v15.693a1.044,1.044,0,0,0,.227.7,1.069,1.069,0,0,0,1.411,0,1.028,1.028,0,0,0,.233-.7V637.973a.757.757,0,0,1,.258-.6.991.991,0,0,1,.677-.226h.9a.3.3,0,0,1,.242.1.363.363,0,0,1,.081.242Z" transform="translate(-163.567 -636.892)" fill="#caa66c"/>
  <path id="Trazado_934" data-name="Trazado 934" d="M238.912,643.8a.888.888,0,0,1-.7-.266,1,1,0,0,1-.233-.686v-3.193a1.023,1.023,0,0,0-.234-.7,1.066,1.066,0,0,0-1.411,0,1.043,1.043,0,0,0-.226.7,13.067,13.067,0,0,0,.169,2.258,8.637,8.637,0,0,0,.46,1.677,8.22,8.22,0,0,0,.653,1.306q.363.581.734,1.161t.733,1.234a8.906,8.906,0,0,1,.654,1.532,12.1,12.1,0,0,1,.459,2.047,19.727,19.727,0,0,1,.17,2.782,2.9,2.9,0,0,1-.218,1.153,2.408,2.408,0,0,1-.628.871,2.85,2.85,0,0,1-.985.557,3.932,3.932,0,0,1-1.266.194,3.268,3.268,0,0,1-2.283-.742,2.611,2.611,0,0,1-.814-2.032v-3.968a.362.362,0,0,1,.081-.242.3.3,0,0,1,.242-.1h.9a.885.885,0,0,1,.7.267,1,1,0,0,1,.233.684v3.356a1.028,1.028,0,0,0,.233.7,1.07,1.07,0,0,0,1.412,0,1.054,1.054,0,0,0,.226-.7,17.653,17.653,0,0,0-.17-2.645,10.1,10.1,0,0,0-.459-1.9,7.61,7.61,0,0,0-.654-1.386q-.363-.591-.733-1.13t-.734-1.121a7.405,7.405,0,0,1-.653-1.37,9.882,9.882,0,0,1-.459-1.855,16.744,16.744,0,0,1-.17-2.6,2.9,2.9,0,0,1,.217-1.153,2.408,2.408,0,0,1,.629-.871,2.839,2.839,0,0,1,.976-.557,3.909,3.909,0,0,1,1.274-.194,3.267,3.267,0,0,1,2.282.742,2.612,2.612,0,0,1,.815,2.032v3.805a.369.369,0,0,1-.081.243.3.3,0,0,1-.242.1Z" transform="translate(-164.338 -636.878)" fill="#caa66c"/>
</svg>
